HIERARCHY
ROOT Hips
{
 OFFSET 0.000000 0.000000 0.000000
 CHANNELS 6 Xposition Yposition Zposition Yrotation Xrotation Zrotation
 JOINT Chest
 {
  OFFSET 0.000000 9.585900 0.002600
  CHANNELS 3 Yrotation Xrotation Zrotation
  JOINT Chest2
  {
   OFFSET 0.000000 9.601200 -0.005300
   CHANNELS 3 Yrotation Xrotation Zrotation
   JOINT Chest3
   {
    OFFSET 0.000000 9.561800 0.000000
    CHANNELS 3 Yrotation Xrotation Zrotation
    JOINT Chest4
    {
     OFFSET 0.000000 9.552100 0.000000
     CHANNELS 3 Yrotation Xrotation Zrotation
     JOINT Neck
     {
      OFFSET 0.000000 14.453000 0.000000
      CHANNELS 3 Yrotation Xrotation Zrotation
      JOINT Head
      {
       OFFSET 0.000000 8.936500 -0.011300
       CHANNELS 3 Yrotation Xrotation Zrotation
       End Site
       {
        OFFSET 0.000000 17.073600 -0.006000
       }
      }
     }
     JOINT RightCollar
     {
      OFFSET -2.921100 9.558500 0.000000
      CHANNELS 3 Yrotation Xrotation Zrotation
      JOINT RightShoulder
      {
       OFFSET -13.519700 0.000000 0.000000
       CHANNELS 3 Yrotation Xrotation Zrotation
       JOINT RightElbow
       {
        OFFSET 0.000000 -29.696600 0.000000
        CHANNELS 3 Yrotation Xrotation Zrotation
        JOINT RightWrist
        {
         OFFSET 0.000000 -24.004700 0.000000
         CHANNELS 3 Yrotation Xrotation Zrotation
         End Site
         {
          OFFSET 0.000000 -17.728500 0.000000
         }
        }
       }
      }
     }
     JOINT LeftCollar
     {
      OFFSET 2.921100 9.558500 0.000000
      CHANNELS 3 Yrotation Xrotation Zrotation
      JOINT LeftShoulder
      {
       OFFSET 13.519700 0.000000 0.000000
       CHANNELS 3 Yrotation Xrotation Zrotation
       JOINT LeftElbow
       {
        OFFSET 0.000000 -29.696600 0.000000
        CHANNELS 3 Yrotation Xrotation Zrotation
        JOINT LeftWrist
        {
         OFFSET 0.000000 -24.004700 0.000000
         CHANNELS 3 Yrotation Xrotation Zrotation
         End Site
         {
          OFFSET 0.000000 -17.728500 0.000000
         }
        }
       }
      }
     }
    }
   }
  }
 }
 JOINT RightHip
 {
  OFFSET -7.771700 -0.012900 -0.001300
  CHANNELS 3 Yrotation Xrotation Zrotation
  JOINT RightKnee
  {
   OFFSET 0.000000 -40.869800 0.001200
   CHANNELS 3 Yrotation Xrotation Zrotation
   JOINT RightAnkle
   {
    OFFSET 0.000000 -39.717900 0.002100
    CHANNELS 3 Yrotation Xrotation Zrotation
    JOINT RightToe
    {
     OFFSET 0.000000 -4.965400 11.033500
     CHANNELS 3 Yrotation Xrotation Zrotation
     End Site
     {
      OFFSET 0.000000 -1.423100 5.872300
     }
    }
   }
  }
 }
 JOINT LeftHip
 {
  OFFSET 7.771700 -0.012900 -0.001300
  CHANNELS 3 Yrotation Xrotation Zrotation
  JOINT LeftKnee
  {
   OFFSET 0.000000 -40.869800 0.001200
   CHANNELS 3 Yrotation Xrotation Zrotation
   JOINT LeftAnkle
   {
    OFFSET 0.000000 -39.717900 0.002100
    CHANNELS 3 Yrotation Xrotation Zrotation
    JOINT LeftToe
    {
     OFFSET 0.000000 -4.965400 11.033500
     CHANNELS 3 Yrotation Xrotation Zrotation
     End Site
     {
      OFFSET 0.000000 -1.423100 5.872300
     }
    }
   }
  }
 }
}
MOTION
Frames: 15
Frame Time: 0.008333
0.000000 85.388000 0.000000 0.000000 -5.767877 0.000000 0.000000 11.653817 0.000000 0.000000 -5.885947 0.000000 0.000000 -0.000000 0.000000 0.000000 -0.000000 0.000000 0.000000 12.528835 0.000000 0.000000 0.711642 0.000000 0.000000 -0.000000 0.000000 0.000000 0.000000 -90.000000 0.000000 -2.309062 0.000000 0.000000 2.309062 0.000000 0.000000 -0.000000 0.000000 0.000000 -0.000000 90.000000 0.000000 -2.309062 0.000000 0.000000 2.309062 0.000000 0.000000 8.520406 0.000000 0.000000 1.905762 0.000000 -0.000000 -4.658285 0.000000 0.000000 -0.000000 0.000000 0.000000 8.520406 0.000000 0.000000 1.905762 0.000000 -0.000000 -4.658285 0.000000 0.000000 -0.000000 0.000000
-54.723969 56.530238 -20.500114 -178.102227 -19.433552 -0.050483 -0.420274 16.962512 -0.001362 -0.009606 1.801253 0.088740 -0.014380 3.001032 0.147819 0.093139 15.058420 0.705350 1.287387 10.305382 4.269466 0.385759 -14.812264 4.299558 -1.248456 -0.200707 1.129482 3.231224 -11.343674 -9.473691 -90.460303 -49.104618 131.831557 -16.755950 -0.872188 -3.517377 -6.339612 -2.993761 1.778932 1.964790 -12.429655 7.529203 68.818442 -43.186746 -121.096271 12.118549 -5.622957 3.457574 -2.353842 -56.376156 11.105808 -35.290380 83.775851 -39.891953 -10.236933 -18.323082 13.792858 0.350990 -0.230254 -0.280028 15.766848 -50.448212 -19.124791 66.680481 70.580627 67.862883 -7.040245 -14.027967 0.548924 0.304747 0.898283 0.196247
-54.731129 56.521685 -20.506272 -178.094262 -19.396409 -0.035381 -0.320506 16.989338 -0.034378 -0.057251 1.761516 0.111029 0.052885 3.004968 0.114859 0.071458 15.021419 0.731103 1.254291 10.260727 4.211620 0.363575 -14.859134 4.244614 -1.318039 -0.245357 1.145103 2.993799 -11.012653 -9.495582 -90.395408 -49.226134 131.639922 -16.741937 -1.008753 -3.743665 -6.262248 -3.044173 1.850410 1.996599 -12.170210 7.633759 68.905126 -43.496883 -120.894506 12.017871 -5.842954 3.617888 -2.321415 -56.407304 11.069043 -35.294249 83.774189 -39.895839 -10.252331 -18.322354 13.825073 0.375374 -0.254387 -0.203430 15.834978 -50.462361 -19.179422 66.655142 70.591288 67.833419 -7.049345 -14.062281 0.571095 0.303082 0.918438 0.190676
-54.738294 56.511855 -20.510923 -178.083354 -19.339977 -0.026368 -0.283425 16.965106 -0.055874 -0.049024 1.754983 0.108699 0.027818 2.987308 0.127594 0.129834 15.009636 0.707219 1.222669 10.216741 4.154751 0.342716 -14.905336 4.190521 -1.383196 -0.304801 1.111837 2.757577 -10.675317 -9.467537 -90.325438 -49.347484 131.446491 -16.710287 -1.130304 -3.941381 -6.191689 -3.085071 1.921381 2.016676 -11.927492 7.735794 69.003214 -43.807431 -120.693365 11.903358 -6.038754 3.774036 -2.271250 -56.455023 11.017388 -35.121339 83.778145 -39.715919 -10.254476 -18.325977 13.854796 0.401606 -0.263620 -0.140663 15.889493 -50.502376 -19.231005 66.651229 70.597108 67.820234 -7.056958 -14.095009 0.592422 0.295988 0.937829 0.183425
-54.742196 56.500910 -20.512415 -178.074026 -19.257311 -0.039868 -0.242355 16.914945 -0.053512 -0.039957 1.749285 0.106134 0.005201 2.969381 0.139741 0.189271 15.001084 0.685794 1.190863 10.173328 4.098696 0.321378 -14.950977 4.137411 -1.454675 -0.320922 1.126613 2.553393 -10.381485 -9.490311 -90.256338 -49.462468 131.255938 -16.670552 -1.227433 -4.111890 -6.130738 -3.113595 1.993003 2.036155 -11.701916 7.831939 69.094790 -44.107914 -120.491789 11.789855 -6.196212 3.924383 -2.271766 -56.537383 11.012484 -34.905195 83.791145 -39.503911 -10.174394 -18.278259 13.862674 0.367284 -0.323369 -0.093863 15.906817 -50.582035 -19.253278 66.671315 70.596307 67.824583 -7.040664 -14.134269 0.600395 0.280167 0.959164 0.168294
-54.748269 56.491554 -20.516691 -178.082642 -19.190797 -0.037378 -0.211674 16.864862 -0.057263 0.031344 1.789209 0.071182 0.008778 2.947308 0.141111 0.187547 14.971891 0.703185 1.161375 10.129912 4.042438 0.302626 -14.996564 4.083463 -1.517420 -0.330866 1.142723 2.361277 -10.096461 -9.515398 -90.181599 -49.570618 131.070898 -16.633818 -1.299625 -4.256618 -6.070359 -3.130795 2.062428 2.060547 -11.492952 7.921451 69.157814 -44.387494 -120.282582 11.693533 -6.304948 4.067428 -2.234689 -56.599795 10.992696 -34.765611 83.789976 -39.356750 -10.162300 -18.239548 13.857528 0.361557 -0.351281 -0.038807 15.977062 -50.632736 -19.293526 66.663424 70.605791 67.816808 -7.061644 -14.168413 0.621396 0.289184 0.976033 0.164156
-54.753728 56.483695 -20.522750 -178.090647 -19.135823 -0.039443 -0.180255 16.826936 -0.056040 0.042396 1.795544 0.066070 0.022276 2.949501 0.134577 0.185345 14.950631 0.711243 1.160426 10.093877 3.960177 0.289315 -15.043082 4.026976 -1.544234 -0.334842 1.150513 2.190658 -9.818573 -9.558525 -90.087639 -49.671415 130.875700 -16.606046 -1.350381 -4.372016 -6.038262 -3.136995 2.096008 2.150620 -11.293735 8.014616 69.174436 -44.628468 -120.054473 11.617742 -6.365015 4.201437 -2.211421 -56.649216 10.988449 -34.643090 83.788278 -39.229909 -10.166411 -18.192098 13.853522 0.329443 -0.387913 -0.004206 16.073457 -50.663355 -19.329820 66.615775 70.634997 67.787469 -7.117951 -14.208033 0.640660 0.332462 0.994340 0.175757
-54.759385 56.476921 -20.529390 -178.085874 -19.085960 -0.043175 -0.121516 16.839507 -0.065030 0.016417 1.765613 0.078280 0.037939 2.951325 0.126112 0.177726 14.922563 0.723558 1.156004 10.059576 3.879550 0.282570 -15.091100 3.967138 -1.554320 -0.325737 1.121087 2.012380 -9.563315 -9.560233 -89.973303 -49.763398 130.661375 -16.587877 -1.382081 -4.461193 -6.003092 -3.140042 2.128142 2.237542 -11.098448 8.103054 69.135032 -44.817669 -119.803818 11.558952 -6.395662 4.327719 -2.212303 -56.693701 10.988602 -34.581495 83.788386 -39.171522 -10.146743 -18.141502 13.842732 0.296732 -0.441463 0.012518 16.100276 -50.706307 -19.352964 66.616395 70.642757 67.787417 -7.122760 -14.221957 0.632850 0.335646 0.997874 0.190799
-54.763754 56.471096 -20.536865 -178.078467 -19.042598 -0.053053 -0.091388 16.839309 -0.066554 0.019126 1.762783 0.076222 0.033279 2.939706 0.127507 0.233229 14.928057 0.687803 1.103412 10.009933 3.906552 0.305756 -15.151034 3.847849 -1.612285 -0.332764 1.143647 1.848311 -9.323738 -9.554311 -89.842376 -49.845373 130.432075 -16.576229 -1.396577 -4.532565 -5.875360 -3.128163 2.215750 2.189746 -10.946018 8.176250 69.033795 -44.957193 -119.533577 11.517914 -6.418242 4.448155 -2.194867 -56.728792 10.976579 -34.567499 83.780378 -39.145422 -10.125264 -18.104715 13.828395 0.341067 -0.455062 0.058284 16.115917 -50.745004 -19.365071 66.617699 70.651941 67.788270 -7.129626 -14.232576 0.636928 0.340665 0.998090 0.194285
-54.767214 56.465813 -20.544774 -178.061399 -19.003024 -0.068707 -0.080983 16.834206 -0.065698 0.020743 1.761386 0.074583 0.035882 2.937441 0.124810 0.240508 14.914413 0.684197 1.100871 9.964772 3.808513 0.298624 -15.196271 3.812249 -1.621934 -0.316521 1.130661 1.705915 -9.098504 -9.556960 -89.688536 -49.913937 130.184293 -16.566231 -1.394667 -4.592548 -5.792762 -3.108256 2.252535 2.244908 -10.785636 8.250312 68.876899 -45.059003 -119.250249 11.499845 -6.444721 4.556686 -2.154749 -56.759189 10.960981 -34.675327 83.761110 -39.233925 -10.151763 -18.074891 13.830503 0.360214 -0.454368 0.097116 16.134730 -50.776106 -19.375094 66.610623 70.664848 67.781234 -7.143620 -14.252137 0.653608 0.345289 1.002755 0.190904
-54.772263 56.462336 -20.557500 -178.076505 -18.995415 -0.062884 -0.048261 16.863770 -0.077867 0.021817 1.760561 0.073149 0.037599 2.936095 0.122426 0.244228 14.891408 0.688233 1.099232 9.929527 3.703117 0.294908 -15.244069 3.774913 -1.624598 -0.299133 1.115535 1.588165 -8.879587 -9.566622 -89.514966 -49.973852 129.917605 -16.557038 -1.375688 -4.645562 -5.716809 -3.068860 2.273986 2.318635 -10.639880 8.319451 68.682249 -45.134131 -118.957175 11.501118 -6.486603 4.646289 -2.108451 -56.762963 10.951983 -34.826593 83.753863 -39.385511 -10.171796 -18.035911 13.836835 0.367511 -0.437400 0.129124 16.202915 -50.765356 -19.392304 66.620780 70.697663 67.791938 -7.150889 -14.288627 0.683346 0.347315 1.004567 0.186020
-54.778486 56.456851 -20.564495 -178.060743 -18.953302 -0.057258 -0.052051 16.860811 -0.102160 0.022126 1.760279 0.071949 0.032706 2.915978 0.130903 0.260354 14.905708 0.665622 1.086732 9.881797 3.644090 0.307602 -15.298857 3.707029 -1.639580 -0.320892 1.141928 1.502475 -8.650196 -9.595305 -89.342790 -50.037828 129.645239 -16.549120 -1.341982 -4.695156 -5.633650 -3.026997 2.309411 2.373484 -10.517470 8.381930 68.468579 -45.193451 -118.654930 11.509644 -6.559804 4.722905 -2.093960 -56.800677 10.931751 -34.876835 83.756355 -39.439985 -10.189233 -18.013621 13.843718 0.367890 -0.452499 0.138818 16.221609 -50.800249 -19.430237 66.626307 70.701118 67.796001 -7.160801 -14.291372 0.687348 0.353988 0.997578 0.183905
-54.784762 56.452097 -20.573847 -178.047461 -18.928385 -0.050170 -0.061531 16.855618 -0.120935 0.026730 1.780739 0.062360 0.029347 2.895553 0.139113 0.265437 14.924928 0.645601 1.080813 9.831284 3.582314 0.325249 -15.355593 3.638156 -1.635089 -0.262851 1.087023 1.418864 -8.516867 -9.545338 -89.191353 -50.112829 129.382798 -16.540323 -1.302370 -4.745983 -5.573922 -2.996628 2.335042 2.446993 -10.391625 8.443019 68.250741 -45.247833 -118.345582 11.513103 -6.672077 4.793482 -2.075844 -56.821659 10.911277 -34.933048 83.765780 -39.512646 -10.179823 -17.996580 13.858594 0.363469 -0.471255 0.143856 16.259109 -50.812935 -19.468462 66.646343 70.713599 67.812864 -7.168234 -14.309993 0.709845 0.352112 0.995222 0.176881
-54.789056 56.448112 -20.585620 -178.055325 -18.921784 -0.048374 -0.047737 16.868372 -0.127050 0.028982 1.803774 0.053247 0.031776 2.892361 0.136182 0.261141 14.925761 0.634593 1.084571 9.786027 3.568450 0.352143 -15.417675 3.525392 -1.624275 -0.219733 1.061774 1.359448 -8.377580 -9.524178 -89.065630 -50.198993 129.136918 -16.528070 -1.259415 -4.801112 -5.516664 -2.961545 2.353513 2.512762 -10.275030 8.503289 68.044546 -45.308197 -118.034956 11.500541 -6.817062 4.858013 -2.048109 -56.823947 10.910643 -35.032284 83.763979 -39.611784 -10.213412 -17.972305 13.861793 0.347571 -0.475769 0.154925 16.308767 -50.810620 -19.473475 66.670082 70.748702 67.831410 -7.184139 -14.328107 0.739168 0.357771 0.984246 0.175872
-54.793038 56.442434 -20.592133 -178.039147 -18.886597 -0.055198 -0.053227 16.874748 -0.139113 0.026476 1.807376 0.051543 0.033135 2.942482 0.114533 0.255890 14.881893 0.646173 1.081850 9.730699 3.485171 0.370491 -15.480075 3.483195 -1.611269 -0.234524 1.068303 1.327710 -8.200661 -9.538082 -88.959626 -50.292010 128.904095 -16.504893 -1.212209 -4.861789 -5.462587 -2.930107 2.362272 2.570607 -10.168929 8.559437 67.868317 -45.387602 -117.733473 11.472113 -6.984257 4.925135 -2.051391 -56.854566 10.915183 -35.104483 83.760946 -39.685168 -10.233405 -17.951992 13.860145 0.373256 -0.451170 0.160911 16.313599 -50.844244 -19.487570 66.688263 70.757476 67.844570 -7.191151 -14.337172 0.752023 0.361691 0.981710 0.172341
